<svg width="30" height="27" viewBox="0 0 30 27" fill="none" xmlns="http://www.w3.org/2000/svg">
<path d="M13.3333 26.6667C5.96933 26.6667 0 20.6973 0 13.3333C0 5.96934 5.96933 3.75771e-06 13.3333 3.75771e-06C15.4035 -0.00155152 17.4456 0.479701 19.2972 1.40553C21.1489 2.33135 22.7591 3.67624 24 5.33334H20.3867C18.847 3.97568 16.9482 3.09115 14.9183 2.78587C12.8883 2.48059 10.8134 2.76754 8.94252 3.61229C7.07161 4.45703 5.4842 5.82369 4.37076 7.54825C3.25732 9.27282 2.66516 11.282 2.66533 13.3348C2.6655 15.3876 3.258 17.3967 4.37172 19.1211C5.48545 20.8455 7.07309 22.2119 8.94414 23.0563C10.8152 23.9007 12.8901 24.1873 14.92 23.8817C16.9499 23.5761 18.8485 22.6912 20.388 21.3333H24.0013C22.7603 22.9906 21.1499 24.3356 19.298 25.2614C17.4461 26.1873 15.4038 26.6684 13.3333 26.6667V26.6667ZM22.6667 18.6667V14.6667H12V12H22.6667V8L29.3333 13.3333L22.6667 18.6667Z" fill="black"/>
</svg>
