<svg width="32" height="32" viewBox="0 0 32 32" fill="none" xmlns="http://www.w3.org/2000/svg">
<path d="M31.9839 10.1256L30.642 17.8242C30.4765 18.6746 29.7989 19.1917 29.0175 19.2014H9.45333L9.0649 21.3909H27.7109C28.6927 21.4655 29.3587 22.161 29.3707 23.0506C29.2993 24.0304 28.6038 24.6982 27.7109 24.7104H7.08728C5.97189 24.6101 5.3068 23.721 5.42749 22.7328L6.31034 17.93L4.9684 4.43989L1.15445 3.23928C0.222424 2.86923 -0.157976 2.02608 0.0597039 1.15573C0.421651 0.248668 1.28893 -0.165759 2.14325 0.0609881L7.01664 1.61483C7.67317 1.86093 8.05085 2.39835 8.14669 3.02741L8.4292 5.71131L30.536 8.18331C31.5518 8.40333 32.1032 9.20789 31.9839 10.1256V10.1256ZM12.1406 28.1954C12.1406 29.5948 11.0062 30.7292 9.60677 30.7292C8.20738 30.7292 7.07298 29.5948 7.07298 28.1954C7.07298 26.796 8.20741 25.6616 9.60677 25.6616C11.0062 25.6616 12.1406 26.7961 12.1406 28.1954ZM27.2673 28.1954C27.2673 29.5948 26.1329 30.7292 24.7335 30.7292C23.3341 30.7292 22.1997 29.5948 22.1997 28.1954C22.1997 26.796 23.3341 25.6616 24.7335 25.6616C26.1329 25.6616 27.2673 26.7961 27.2673 28.1954Z"  fill="#FFC93C"/>
</svg>
